<svg xmlns="http://www.w3.org/2000/svg" viewBox="0 0 475.78 475.78"><defs><style>.cls-1{fill:#ffa70b;stroke:#fcfcfc;stroke-miterlimit:10;}.cls-2{fill:#fff;}</style></defs><title>자산 1</title><g id="레이어_2" data-name="레이어 2"><g id="레이어_1-2" data-name="레이어 1"><circle class="cls-1" cx="237.89" cy="237.89" r="237.39"/><path class="cls-2" d="M227.12,256.73c-4.37,5.72-8.79,10.6-11.49,16.71-2.41,5.44-6,7.63-10.84,6.3-4.52-1.25-6.43-5-5.48-10.74.16-1,.39-2,.55-2.95.19-1.13.84-2.51-.24-3.28s-2.16.42-3,1.1c-4.81,3.84-9.58,7.74-14.37,11.62a47.86,47.86,0,0,1-4.29,3.41c-3.32,2.08-6.92,2.79-10.38.58a8.84,8.84,0,0,1-3.94-9.16c.91-5.91,2.39-11.74,3.6-17.61.55-2.67,1-5.36,1.74-9.21a80.61,80.61,0,0,0-12.68,12.25c-11.39,13-19.57,28.11-27.46,43.38a82.25,82.25,0,0,1-4.7,7.66c-2.46,3.72-5.82,6.17-10.44,5.52-4.94-.71-7.26-4.35-8.38-8.85-1.69-6.75-1.08-13.61-.51-20.4,2.57-30.62,8.7-60.67,15.35-90.6,6.72-30.25,14-60.37,21.16-90.53.77-3.22.33-4.16-3.16-3.77-20.54,2.24-41.08,4.35-61,10.07-5.19,1.48-10.34-1.45-11.42-6.15s1.62-8.53,7.44-9.86a506.09,506.09,0,0,1,62.68-9.67c20.39-2,40.86-2.48,61.33-3.29,23.16-.92,46.32-1,69.45-.46,30.94.73,61.91,1.54,92.75,4.6a23.62,23.62,0,0,1,3.45.56c6.07,1.48,8.83,5.13,7.81,10.24-.87,4.35-4.62,6.06-10.78,5.26-12.22-1.59-24.54-2-36.84-2.8-42.27-2.61-84.58-2.27-126.9-1.81-9.82.11-19.63.81-29.45,1-5.46.11-8.12,2.39-9.48,7.95C143.82,158.19,130.19,212.5,122.2,268a51.15,51.15,0,0,0-.48,9.48c5.34-8.46,10.64-16.82,16.67-24.68A135.89,135.89,0,0,1,160,230a35.81,35.81,0,0,1,4.15-2.79c4.81-2.93,10-4.41,15.1-1.32,5.28,3.23,6,9,5.92,14.57-.07,3.93-.86,7.83-1.45,12.78,3.66-2.45,6.43-4.49,9.38-6.24,5.89-3.51,12-5.29,18.23-.81,2.2,1.58,3.67.57,5.15-1a26.13,26.13,0,0,1,8-5.94c5.7-2.7,11-2,14.85,2.95,2.75,3.54,3.86,2.23,5.55-.56,4.73-7.82,10.47-14.66,19-18.52,17.1-7.7,32.65-3.23,43.18,12.38,7.52,11.15,11.25,23.74,13.59,36.77,2,11.29,1.87,11.31,13,9.43,28.1-4.74,56.26-8.76,84.84-9.42,9.33-.21,18.61-.86,27.91.2.83.09,1.67.06,2.49.19,5.42.84,9.18,5.15,8.61,9.86s-4.92,8-10.41,7c-26-4.71-51.74.25-77.51,2.57-13.43,1.21-26.69,3.9-39.95,6.43-3.91.75-5.05,2.55-5.06,6.44-.25,49.14-22.74,85.92-64.19,110.79-21.13,12.67-44.07,15.51-66.34,1.46-13.87-8.75-24.31-20.28-25.93-37.67-1.16-12.34,4.76-21.79,12.44-30.49,11.8-13.38,26.89-22.24,42.32-30.56a321.56,321.56,0,0,1,78.85-29.66c4.24-1,5.78-2.49,4.86-7.09-2.29-11.47-4.6-22.82-10.14-33.33-10.93-20.74-26.69-14.09-35.45-2.27-4.95,6.69-9.27,13.83-13.88,20.77-.47.69-1,1.36-1.49,2-4.4,5.46-8.07,7.12-12.23,5.3-5.29-2.32-5.41-7.06-5.29-11.86C228.14,260.85,228.59,259.34,227.12,256.73Zm81.42,56.5c0-1.66,0-3.33,0-5,.12-3.5-1.14-4.77-4.85-3.83-30.51,7.79-59.59,19-86.49,35.53-10.51,6.47-20.65,13.45-28.1,23.62-7.22,9.84-7.18,18.56.19,28.37,13.74,18.31,35.33,23.15,57.17,13.29,13.86-6.25,24.9-16,34.85-27C297.9,359.74,307.22,338.15,308.54,313.23Z"/><path class="cls-2" d="M350.4,228.5c2.22,1.61,4.45.92,6.51.93a26.83,26.83,0,0,1,12.49,3c7.93,4.17,10.52,13.13,6,20.86a23,23,0,0,1-7.62,7.78c-8.1,5.15-17.11,7.31-26.56,7.64-4.71.16-8-2.7-8.46-6.78s2.22-7.34,6.91-8.37c3.41-.74,6.9-1.16,10.3-1.93a18.56,18.56,0,0,0,9.77-5.21c-2.45-1.64-5-1.55-7.62-1.24a36.63,36.63,0,0,1-14.37-.72c-8.3-2.31-12.07-9.63-7.76-17a42.24,42.24,0,0,1,26.26-20.09,12.29,12.29,0,0,1,6.9.34c3.79,1.16,6.1,3.84,5.9,7.7-.2,4.06-2.73,6.92-7,7.2A16.41,16.41,0,0,0,350.4,228.5Z"/></g></g></svg>