<?xml version="1.0" encoding="utf-8"?>
<!-- Generator: Adobe Illustrator 23.0.1, SVG Export Plug-In . SVG Version: 6.00 Build 0)  -->
<svg version="1.1" id="레이어_1" xmlns="http://www.w3.org/2000/svg" xmlns:xlink="http://www.w3.org/1999/xlink" x="0px"
	 y="0px" viewBox="0 0 949 256" style="enable-background:new 0 0 949 256;" xml:space="preserve">
<style type="text/css">
	.st0{fill:#FFA70B;}
	.st1{fill:#FFFFFF;}
	.st2{fill:none;}
	.st3{font-family:'LilStuart-Regular';}
	.st4{font-size:200px;}
</style>
<g>
	<g id="레이어_1-2">
		<circle class="st0" cx="107.4" cy="131.1" r="107.4"/>
		<path class="st1" d="M102.5,139.7c-2,2.6-4,4.8-5.2,7.6c-1.1,2.5-2.7,3.5-4.9,2.8c-2-0.6-2.9-2.3-2.5-4.9c0.1-0.5,0.2-0.9,0.2-1.3
			c0.1-0.5,0.4-1.1-0.1-1.5c-0.5-0.3-1,0.2-1.4,0.5c-2.2,1.7-4.3,3.5-6.5,5.3c-0.6,0.6-1.3,1.1-1.9,1.5c-1.5,0.9-3.1,1.3-4.7,0.3
			c-1.4-0.9-2.1-2.5-1.8-4.1c0.4-2.7,1.1-5.3,1.6-8c0.2-1.2,0.5-2.4,0.8-4.2c-2.1,1.6-4,3.5-5.7,5.5c-5.2,5.9-8.9,12.7-12.4,19.6
			c-0.6,1.2-1.4,2.3-2.1,3.5c-1.1,1.7-2.6,2.8-4.7,2.5c-2.2-0.3-3.3-2-3.8-4c-0.8-3.1-0.5-6.2-0.2-9.2c1.2-13.8,3.9-27.4,6.9-41
			c3-13.7,6.3-27.3,9.6-40.9c0.3-1.5,0.1-1.9-1.4-1.7c-9.3,1-18.6,2-27.6,4.6c-2.3,0.7-4.7-0.7-5.2-2.8s0.7-3.9,3.4-4.5
			c9.3-2,18.8-3.5,28.4-4.4c9.2-0.9,18.5-1.1,27.7-1.5c10.5-0.4,21-0.5,31.4-0.2c14,0.3,28,0.7,42,2.1c0.5,0,1,0.1,1.6,0.3
			c2.7,0.7,4,2.3,3.5,4.6c-0.4,2-2.1,2.7-4.9,2.4c-5.5-0.7-11.1-0.9-16.7-1.3c-19.1-1.2-38.3-1-57.4-0.8c-4.4,0-8.9,0.4-13.3,0.5
			c-2.5,0-3.7,1.1-4.3,3.6c-6.1,24.6-12.2,49.2-15.8,74.3c-0.2,1.4-0.3,2.9-0.2,4.3c2.4-3.8,4.8-7.6,7.5-11.2
			c2.8-3.8,6.1-7.3,9.8-10.3c0.6-0.5,1.2-0.9,1.9-1.3c2.2-1.3,4.5-2,6.8-0.6c2.4,1.5,2.7,4.1,2.7,6.6c0,1.8-0.4,3.5-0.7,5.8
			c1.7-1.1,2.9-2,4.2-2.8c2.7-1.6,5.4-2.4,8.2-0.4c1,0.7,1.7,0.3,2.3-0.5c1-1.1,2.3-2,3.6-2.7c2.6-1.2,5-0.9,6.7,1.3
			c1.2,1.6,1.7,1,2.5-0.3c2.1-3.5,4.7-6.6,8.6-8.4c7.7-3.5,14.8-1.5,19.5,5.6c3.4,5,5.1,10.7,6.1,16.6c0.9,5.1,0.8,5.1,5.9,4.3
			c12.7-2.1,25.4-4,38.4-4.3c4.2-0.1,8.4-0.4,12.6,0.1c0.4,0,0.8,0,1.1,0.1c2.5,0.4,4.2,2.3,3.9,4.5c-0.3,2.1-2.2,3.6-4.7,3.2
			c-11.8-2.1-23.4,0.1-35.1,1.2c-6.1,0.5-12.1,1.8-18.1,2.9c-1.8,0.3-2.3,1.2-2.3,2.9c-0.1,22.2-10.3,38.9-29,50.1
			c-9.6,5.7-19.9,7-30,0.7c-6.3-4-11-9.2-11.7-17c-0.5-5.6,2.2-9.9,5.6-13.8c5.3-6.1,12.2-10.1,19.1-13.8
			c11.2-6,23.2-10.5,35.7-13.4c1.9-0.5,2.6-1.1,2.2-3.2c-1-5.2-2.1-10.3-4.6-15.1c-4.9-9.4-12.1-6.4-16-1c-2.2,3-4.2,6.3-6.3,9.4
			c-0.2,0.3-0.5,0.6-0.7,0.9c-2,2.5-3.7,3.2-5.5,2.4c-2.4-1-2.4-3.2-2.4-5.4C103,141.5,103.2,140.8,102.5,139.7z M139.3,165.2
			c0-0.8,0-1.5,0-2.3c0.1-1.6-0.5-2.2-2.2-1.7c-13.8,3.5-27,8.6-39.1,16.1c-4.8,2.9-9.3,6.1-12.7,10.7c-3.3,4.5-3.2,8.4,0.1,12.8
			c6.2,8.3,16,10.5,25.9,6c6.3-2.8,11.3-7.2,15.8-12.2C134.5,186.2,138.7,176.5,139.3,165.2L139.3,165.2z"/>
		<path class="st1" d="M158.3,126.9c1,0.7,2,0.4,2.9,0.4c2,0,3.9,0.5,5.6,1.4c3.6,1.9,4.8,5.9,2.7,9.4c-0.9,1.4-2,2.6-3.4,3.5
			c-3.7,2.3-7.7,3.3-12,3.5c-2.1,0.1-3.6-1.2-3.8-3.1s1-3.3,3.1-3.8c1.5-0.3,3.1-0.5,4.7-0.9c1.7-0.3,3.2-1.1,4.4-2.4
			c-1.1-0.7-2.3-0.7-3.4-0.6c-2.2,0.3-4.4,0.2-6.5-0.3c-3.8-1-5.5-4.4-3.5-7.7c2.6-4.5,6.8-7.8,11.9-9.1c1-0.2,2.1-0.2,3.1,0.2
			c1.7,0.5,2.8,1.7,2.7,3.5s-1.2,3.1-3.2,3.3C161.5,124.3,159.6,125.3,158.3,126.9z"/>
	</g>
</g>
<rect x="269.2" y="28.9" class="st2" width="651.9" height="176.5"/>
<text transform="matrix(1 0 0 1 269.1926 198.9115)" class="st0 st3 st4">Tung&apos;s</text>
</svg>
