<?xml version="1.0" encoding="utf-8"?>
<!-- Generator: Adobe Illustrator 23.0.1, SVG Export Plug-In . SVG Version: 6.00 Build 0)  -->
<svg version="1.1" id="레이어_1" xmlns="http://www.w3.org/2000/svg" xmlns:xlink="http://www.w3.org/1999/xlink" x="0px"
	 y="0px" viewBox="0 0 949 256" style="enable-background:new 0 0 949 256;" xml:space="preserve">
<style type="text/css">
	.st0{fill:#FFA70B;stroke:#FCFCFC;stroke-miterlimit:10;}
	.st1{font-family:'D2Coding';}
	.st2{font-size:170px;}
	.st3{font-family:'BMDoHyeon-OTF-KSCpc-EUC-H';}
	.st4{font-size:150px;}
	.st5{fill:#FFFFFF;}
</style>
<text transform="matrix(1 0 0 1 226.1613 187.5118)"><tspan x="0" y="0" class="st0 st1 st2">Tungh</tspan><tspan x="425" y="0" class="st0 st3 st4">’</tspan><tspan x="464" y="0" class="st0 st1 st2">s</tspan></text>
<g>
	<circle class="st0" cx="97.6" cy="128" r="97.6"/>
	<g>
		<path class="st5" d="M93.1,135.7c-1.8,2.4-3.6,4.4-4.7,6.9c-1,2.2-2.5,3.1-4.5,2.6c-1.9-0.5-2.6-2.1-2.3-4.4
			c0.1-0.4,0.2-0.8,0.2-1.2c0.1-0.5,0.3-1-0.1-1.3c-0.5-0.3-0.9,0.2-1.2,0.5c-2,1.6-3.9,3.2-5.9,4.8c-0.6,0.5-1.1,1-1.8,1.4
			c-1.4,0.9-2.8,1.1-4.3,0.2c-1.3-0.9-1.8-2.3-1.6-3.8c0.4-2.4,1-4.8,1.5-7.2c0.2-1.1,0.4-2.2,0.7-3.8c-2.2,1.7-3.7,3.4-5.2,5
			c-4.7,5.4-8,11.6-11.3,17.8c-0.6,1.1-1.3,2.1-1.9,3.1c-1,1.5-2.4,2.5-4.3,2.3c-2-0.3-3-1.8-3.4-3.6c-0.7-2.8-0.4-5.6-0.2-8.4
			c1.1-12.6,3.6-24.9,6.3-37.2c2.8-12.4,5.8-24.8,8.7-37.2c0.3-1.3,0.1-1.7-1.3-1.6c-8.4,0.9-16.9,1.8-25.1,4.1
			c-2.1,0.6-4.2-0.6-4.7-2.5c-0.4-1.9,0.7-3.5,3.1-4.1c8.5-1.9,17.1-3.1,25.8-4c8.4-0.8,16.8-1,25.2-1.4c9.5-0.4,19-0.4,28.5-0.2
			c12.7,0.3,25.4,0.6,38.1,1.9c0.5,0,1,0.1,1.4,0.2c2.5,0.6,3.6,2.1,3.2,4.2c-0.4,1.8-1.9,2.5-4.4,2.2c-5-0.7-10.1-0.8-15.1-1.1
			c-17.4-1.1-34.8-0.9-52.1-0.7c-4,0-8.1,0.3-12.1,0.4c-2.2,0-3.3,1-3.9,3.3c-5.5,22.3-11.1,44.7-14.4,67.5
			c-0.2,1.3-0.2,2.6-0.2,3.9c2.2-3.5,4.4-6.9,6.9-10.1c2.6-3.4,5.5-6.6,8.9-9.4c0.5-0.4,1.1-0.8,1.7-1.1c2-1.2,4.1-1.8,6.2-0.5
			c2.2,1.3,2.5,3.7,2.4,6c0,1.6-0.4,3.2-0.6,5.2c1.5-1,2.6-1.8,3.9-2.6c2.4-1.4,4.9-2.2,7.5-0.3c0.9,0.6,1.5,0.2,2.1-0.4
			c0.9-1,2-1.8,3.3-2.4c2.3-1.1,4.5-0.8,6.1,1.2c1.1,1.5,1.6,0.9,2.3-0.2c1.9-3.2,4.3-6,7.8-7.6c7-3.2,13.4-1.3,17.7,5.1
			c3.1,4.6,4.6,9.8,5.6,15.1c0.8,4.6,0.8,4.6,5.3,3.9c11.5-1.9,23.1-3.6,34.9-3.9c3.8-0.1,7.6-0.4,11.5,0.1c0.3,0,0.7,0,1,0.1
			c2.2,0.3,3.8,2.1,3.5,4c-0.2,1.9-2,3.3-4.3,2.9c-10.7-1.9-21.3,0.1-31.9,1.1c-5.5,0.5-11,1.6-16.4,2.6c-1.6,0.3-2.1,1-2.1,2.6
			c-0.1,20.2-9.3,35.3-26.4,45.5c-8.7,5.2-18.1,6.4-27.3,0.6c-5.7-3.6-10-8.3-10.7-15.5c-0.5-5.1,2-9,5.1-12.5
			c4.8-5.5,11-9.1,17.4-12.6c10.2-5.5,21.1-9.5,32.4-12.2c1.7-0.4,2.4-1,2-2.9c-0.9-4.7-1.9-9.4-4.2-13.7c-4.5-8.5-11-5.8-14.6-0.9
			c-2,2.7-3.8,5.7-5.7,8.5c-0.2,0.3-0.4,0.6-0.6,0.8c-1.8,2.2-3.3,2.9-5,2.2c-2.2-1-2.2-2.9-2.2-4.9
			C93.5,137.4,93.7,136.8,93.1,135.7z M126.6,159c0-0.7,0-1.4,0-2.1c0-1.4-0.5-2-2-1.6c-12.5,3.2-24.5,7.8-35.5,14.6
			c-4.3,2.7-8.5,5.5-11.5,9.7c-3,4-2.9,7.6,0.1,11.7c5.6,7.5,14.5,9.5,23.5,5.5c5.7-2.6,10.2-6.6,14.3-11.1
			C122.2,178.1,126,169.2,126.6,159z"/>
		<path class="st5" d="M143.8,124.1c0.9,0.7,1.8,0.4,2.7,0.4c1.8,0,3.5,0.4,5.1,1.2c3.3,1.7,4.3,5.4,2.5,8.6
			c-0.8,1.3-1.8,2.4-3.1,3.2c-3.3,2.1-7,3-10.9,3.1c-1.9,0.1-3.3-1.1-3.5-2.8c-0.2-1.6,0.9-3,2.8-3.4c1.4-0.3,2.8-0.5,4.2-0.8
			c1.8-0.4,2.7-0.9,4-2.1c-1-0.7-2.1-0.6-3.1-0.5c-2,0.2-4,0.2-5.9-0.3c-3.4-0.9-5-4-3.2-7c2.4-4.2,6.1-7,10.8-8.3
			c1-0.3,1.9-0.1,2.8,0.1c1.6,0.5,2.5,1.6,2.4,3.2c-0.1,1.7-1.1,2.8-2.9,3C146.6,121.9,145.1,122.7,143.8,124.1z"/>
	</g>
</g>
</svg>
